simulation
nRows=51
nColumns=15
endheader
time  TH_x TH_y TH_z SC_y  SC_z  SC_x  AC_y  AC_z  AC_x  GH_y  GH_z  GH_yy  EL_x  PS_y
0.000000  0.000000  0.000000  0.000000  -32.405214  3.501512  16.443985  63.475097  9.832253  -4.525146  44.457780  51.370664  -55.011230  24.456579  0.000000
0.046000  0.000000  0.000000  0.000000  -32.330503  3.880057  17.240211  64.353333  10.511586  -3.675011  44.943144  52.230001  -55.113704  25.160417  0.000000
0.092000  0.000000  0.000000  0.000000  -32.834138  4.037559  17.262255  64.878137  10.747969  -3.062942  45.503774  52.496547  -55.534884  25.699572  0.000000
0.138000  0.000000  0.000000  0.000000  -33.319083  4.045890  16.919388  65.017845  10.776505  -2.771713  46.020064  52.434383  -56.384819  25.943697  0.000000
0.184000  0.000000  0.000000  0.000000  -33.607299  4.014118  16.462411  64.925462  10.763614  -2.684537  46.539842  52.160786  -57.596749  25.966486  0.000000
0.230000  0.000000  0.000000  0.000000  -33.679050  3.953562  16.010230  64.719529  10.727029  -2.700196  47.118285  51.792621  -59.060457  25.874284  0.000000
0.276000  0.000000  0.000000  0.000000  -33.599096  3.912576  15.584624  64.500487  10.660109  -2.746263  47.794631  51.390687  -60.661822  25.741681  0.000000
0.322000  0.000000  0.000000  0.000000  -33.426422  3.883000  15.187027  64.303832  10.541498  -2.764339  48.568484  50.959678  -62.301871  25.608589  0.000000
0.368000  0.000000  0.000000  0.000000  -33.210540  3.876569  14.808305  64.169856  10.367269  -2.740649  49.420145  50.499888  -63.917037  25.498431  0.000000
0.414000  0.000000  0.000000  0.000000  -32.985179  3.877145  14.453058  64.106687  10.135471  -2.658674  50.333390  49.998603  -65.446568  25.425989  0.000000
0.460000  0.000000  0.000000  0.000000  -32.768372  3.881943  14.119939  64.136581  9.857381  -2.524144  51.286376  49.458547  -66.861430  25.401720  0.000000
0.506000  0.000000  0.000000  0.000000  -32.575358  3.880809  13.819368  64.262388  9.537739  -2.333868  52.271191  48.878269  -68.129675  25.432397  0.000000
0.552000  0.000000  0.000000  0.000000  -32.411256  3.867026  13.551058  64.494289  9.185612  -2.096409  53.272931  48.269206  -69.245281  25.522912  0.000000
0.598000  0.000000  0.000000  0.000000  -32.282065  3.835755  13.323104  64.827678  8.805237  -1.817173  54.287678  47.636331  -70.198266  25.672577  0.000000
0.644000  0.000000  0.000000  0.000000  -32.189602  3.781854  13.133013  65.255674  8.403881  -1.507830  55.301126  46.994763  -70.997445  25.880160  0.000000
0.690000  0.000000  0.000000  0.000000  -32.138670  3.704808  12.986621  65.758784  7.989796  -1.182429  56.304286  46.355878  -71.648785  26.139775  0.000000
0.736000  0.000000  0.000000  0.000000  -32.130332  3.604040  12.879273  66.311036  7.574175  -0.853071  57.280086  45.738804  -72.169114  26.445273  0.000000
0.782000  0.000000  0.000000  0.000000  -32.162554  3.487769  12.804660  66.885482  7.175897  -0.528925  58.216371  45.152736  -72.573153  26.784729  0.000000
0.828000  0.000000  0.000000  0.000000  -32.228079  3.362943  12.760072  67.454082  6.798672  -0.214499  59.099266  44.603650  -72.879309  27.145968  0.000000
0.874000  0.000000  0.000000  0.000000  -32.314966  3.242221  12.742355  68.003009  6.450745  0.079650  59.917871  44.096313  -73.105590  27.513585  0.000000
0.920000  0.000000  0.000000  0.000000  -32.410704  3.130544  12.750735  68.509970  6.131826  0.352080  60.663438  43.632235  -73.266294  27.873665  0.000000
0.966000  0.000000  0.000000  0.000000  -32.503670  3.034511  12.779602  68.964566  5.846429  0.595191  61.325926  43.217681  -73.376792  28.211405  0.000000
1.012000  0.000000  0.000000  0.000000  -32.585778  2.957847  12.827675  69.350897  5.592399  0.806234  61.899084  42.854499  -73.445323  28.515035  0.000000
1.058000  0.000000  0.000000  0.000000  -32.650205  2.902267  12.890583  69.662865  5.372610  0.976444  62.371900  42.550876  -73.481132  28.770972  0.000000
1.104000  0.000000  0.000000  0.000000  -32.695855  2.868477  12.964260  69.893003  5.188276  1.101519  62.737820  42.309665  -73.485416  28.970283  0.000000
1.150000  0.000000  0.000000  0.000000  -32.723448  2.852027  13.045695  70.039498  5.039171  1.175066  62.987663  42.136589  -73.459074  29.102927  0.000000
1.196000  0.000000  0.000000  0.000000  -32.733256  2.854358  13.130752  70.100742  4.929417  1.195060  63.115372  42.034378  -73.396233  29.162756  0.000000
1.242000  0.000000  0.000000  0.000000  -32.727387  2.872337  13.218150  70.077309  4.858789  1.160914  63.115264  42.004940  -73.288900  29.143503  0.000000
1.288000  0.000000  0.000000  0.000000  -32.703072  2.909602  13.305036  69.970040  4.829698  1.076393  62.984681  42.046031  -73.124428  29.042298  0.000000
1.334000  0.000000  0.000000  0.000000  -32.661104  2.965175  13.393823  69.783265  4.839661  0.945411  62.722619  42.155183  -72.887832  28.856940  0.000000
1.380000  0.000000  0.000000  0.000000  -32.598793  3.042947  13.485854  69.520504  4.889205  0.776665  62.329989  42.326802  -72.561112  28.588234  0.000000
1.426000  0.000000  0.000000  0.000000  -32.522060  3.142027  13.584599  69.194665  4.976756  0.573833  61.808468  42.558854  -72.125755  28.240032  0.000000
1.472000  0.000000  0.000000  0.000000  -32.437804  3.258719  13.694354  68.812462  5.097557  0.348666  61.162312  42.845157  -71.561954  27.819059  0.000000
1.518000  0.000000  0.000000  0.000000  -32.355055  3.389868  13.820672  68.395652  5.253465  0.100026  60.395978  43.186742  -70.851353  27.333750  0.000000
1.564000  0.000000  0.000000  0.000000  -32.288472  3.526475  13.960331  67.959085  5.441759  -0.157970  59.516989  43.579768  -69.977877  26.797138  0.000000
1.610000  0.000000  0.000000  0.000000  -32.244096  3.663417  14.117538  67.526231  5.662937  -0.422039  58.537721  44.015919  -68.928033  26.221480  0.000000
1.656000  0.000000  0.000000  0.000000  -32.231837  3.791778  14.287109  67.116809  5.911214  -0.677479  57.471086  44.490296  -67.696540  25.622665  0.000000
1.702000  0.000000  0.000000  0.000000  -32.256184  3.905127  14.469660  66.752887  6.187409  -0.916754  56.338354  44.989701  -66.280698  25.017404  0.000000
1.748000  0.000000  0.000000  0.000000  -32.323191  3.997530  14.658133  66.455336  6.483865  -1.127773  55.158118  45.509304  -64.693730  24.424841  0.000000
1.794000  0.000000  0.000000  0.000000  -32.435302  4.063191  14.849199  66.237725  6.799638  -1.300152  53.959519  46.032649  -62.952613  23.865146  0.000000
1.840000  0.000000  0.000000  0.000000  -32.591803  4.101974  15.035912  66.114596  7.125078  -1.428316  52.767687  46.554266  -61.097606  23.359862  0.000000
1.886000  0.000000  0.000000  0.000000  -32.792885  4.111040  15.212328  66.087393  7.455073  -1.502617  51.620099  47.060690  -59.175536  22.933245  0.000000
1.932000  0.000000  0.000000  0.000000  -33.026924  4.096269  15.375428  66.160737  7.778284  -1.527244  50.551940  47.551794  -57.262379  22.610408  0.000000
1.978000  0.000000  0.000000  0.000000  -33.284313  4.055787  15.521398  66.324545  8.091455  -1.496893  49.612370  48.025922  -55.444577  22.420396  0.000000
2.024000  0.000000  0.000000  0.000000  -33.533808  3.998782  15.656439  66.572348  8.395497  -1.431556  48.846439  48.494923  -53.841918  22.390710  0.000000
2.070000  0.000000  0.000000  0.000000  -33.739792  3.922392  15.787320  66.871734  8.709546  -1.342466  48.302889  48.955329  -52.587283  22.543267  0.000000
2.116000  0.000000  0.000000  0.000000  -33.844684  3.838250  15.930410  67.176458  9.060092  -1.286097  48.008825  49.388335  -51.839799  22.881273  0.000000
2.162000  0.000000  0.000000  0.000000  -33.798591  3.728265  16.103799  67.376104  9.445263  -1.335123  47.953198  49.711306  -51.748954  23.367677  0.000000
2.208000  0.000000  0.000000  0.000000  -33.596820  3.603754  16.327496  67.319194  9.784538  -1.633468  48.084524  49.791349  -52.401524  23.918242  0.000000
2.254000  0.000000  0.000000  0.000000  -33.384440  3.313952  16.503496  66.851599  9.843083  -2.294023  48.272632  49.423319  -53.676806  24.367602  0.000000
2.300000  0.000000  0.000000  0.000000  -33.620437  2.919724  16.397335  66.029482  9.124372  -3.274174  48.346799  48.396383  -54.850476  24.453653  0.000000
